<svg width="77" height="20" viewBox="0 0 77 20" fill="none" xmlns="http://www.w3.org/2000/svg">
<path d="M0 1.21603H3.264V16.216H10.92V19.096H0V1.21603Z" fill="#151411"/>
<path d="M16.7272 19.384C15.3512 19.384 14.2552 19.048 13.4392 18.376C12.6392 17.704 12.2393 16.792 12.2393 15.64C12.2393 14.536 12.6153 13.624 13.3673 12.904C14.1193 12.184 15.2472 11.704 16.7512 11.464L20.6392 10.84V10.408C20.6392 9.83203 20.4153 9.36003 19.9673 8.99203C19.5353 8.62403 18.9593 8.44003 18.2393 8.44003C17.5672 8.44003 16.9672 8.62403 16.4392 8.99203C15.9272 9.34403 15.5512 9.81603 15.3112 10.408L12.7432 9.16003C13.1272 8.13603 13.8312 7.31203 14.8552 6.68803C15.8792 6.06403 17.0472 5.75203 18.3592 5.75203C19.4152 5.75203 20.3512 5.95203 21.1672 6.35203C21.9993 6.73603 22.6392 7.28803 23.0872 8.00803C23.5513 8.71203 23.7833 9.51203 23.7833 10.408V19.096H20.8073V17.704C19.7833 18.824 18.4232 19.384 16.7272 19.384ZM15.5033 15.52C15.5033 15.968 15.6712 16.328 16.0072 16.6C16.3433 16.856 16.7752 16.984 17.3032 16.984C18.2792 16.984 19.0793 16.68 19.7033 16.072C20.3273 15.448 20.6392 14.68 20.6392 13.768V13.24L17.3512 13.792C16.7272 13.92 16.2633 14.128 15.9592 14.416C15.6552 14.688 15.5033 15.056 15.5033 15.52Z" fill="#151411"/>
<path d="M26.6891 0.928028H29.8331V19.096H26.6891V0.928028Z" fill="#151411"/>
<path d="M36.696 19.384C35.32 19.384 34.224 19.048 33.408 18.376C32.608 17.704 32.208 16.792 32.208 15.64C32.208 14.536 32.584 13.624 33.336 12.904C34.088 12.184 35.216 11.704 36.72 11.464L40.608 10.84V10.408C40.608 9.83203 40.384 9.36003 39.936 8.99203C39.504 8.62403 38.928 8.44003 38.208 8.44003C37.536 8.44003 36.936 8.62403 36.408 8.99203C35.896 9.34403 35.52 9.81603 35.28 10.408L32.712 9.16003C33.096 8.13603 33.8 7.31203 34.824 6.68803C35.848 6.06403 37.016 5.75203 38.328 5.75203C39.384 5.75203 40.32 5.95203 41.136 6.35203C41.968 6.73603 42.608 7.28803 43.056 8.00803C43.52 8.71203 43.752 9.51203 43.752 10.408V19.096H40.776V17.704C39.752 18.824 38.392 19.384 36.696 19.384ZM35.472 15.52C35.472 15.968 35.64 16.328 35.976 16.6C36.312 16.856 36.744 16.984 37.272 16.984C38.248 16.984 39.048 16.68 39.672 16.072C40.296 15.448 40.608 14.68 40.608 13.768V13.24L37.32 13.792C36.696 13.92 36.232 14.128 35.928 14.416C35.624 14.688 35.472 15.056 35.472 15.52Z" fill="#151411"/>
<path d="M51.5539 19.36C50.2419 19.36 49.0819 19.048 48.0739 18.424C47.0819 17.8 46.3779 16.944 45.9619 15.856L48.2899 14.656C48.6419 15.36 49.1059 15.912 49.6819 16.312C50.2739 16.696 50.9219 16.888 51.6259 16.888C52.2339 16.888 52.7059 16.768 53.0419 16.528C53.3939 16.272 53.5699 15.928 53.5699 15.496C53.5699 15.128 53.4259 14.824 53.1379 14.584C52.8499 14.328 52.4739 14.16 52.0099 14.08L49.8739 13.72C48.7699 13.432 47.9139 12.944 47.3059 12.256C46.7139 11.552 46.4179 10.728 46.4179 9.78403C46.4179 9.00003 46.6259 8.30403 47.0419 7.69603C47.4579 7.07203 48.0339 6.59203 48.7699 6.25603C49.5219 5.92003 50.3699 5.75203 51.3139 5.75203C52.5139 5.75203 53.5699 6.04003 54.4819 6.61603C55.3939 7.17603 56.0579 7.96003 56.4739 8.96803L54.1459 10.168C53.8899 9.60803 53.4979 9.16003 52.9699 8.82403C52.4419 8.48803 51.8579 8.32003 51.2179 8.32003C50.6899 8.32003 50.2659 8.44003 49.9459 8.68003C49.6419 8.92003 49.4899 9.23203 49.4899 9.61603C49.4899 10.32 50.0179 10.792 51.0739 11.032L53.1619 11.416C54.2659 11.72 55.1219 12.216 55.7299 12.904C56.3379 13.592 56.6419 14.408 56.6419 15.352C56.6419 16.136 56.4259 16.832 55.9939 17.44C55.5779 18.048 54.9859 18.52 54.2179 18.856C53.4499 19.192 52.5619 19.36 51.5539 19.36Z" fill="#151411"/>
<path d="M58.986 6.04003H62.13V19.096H58.986V6.04003ZM58.746 2.44003C58.746 1.86403 58.906 1.41603 59.226 1.09603C59.546 0.776028 59.986 0.616028 60.546 0.616028C61.122 0.616028 61.57 0.776028 61.89 1.09603C62.21 1.41603 62.37 1.86403 62.37 2.44003C62.37 3.00003 62.21 3.44003 61.89 3.76003C61.586 4.08003 61.138 4.24003 60.546 4.24003C59.986 4.24003 59.546 4.08003 59.226 3.76003C58.906 3.44003 58.746 3.00003 58.746 2.44003Z" fill="#151411"/>
<path d="M68.9929 19.384C67.6169 19.384 66.5209 19.048 65.7049 18.376C64.9049 17.704 64.5049 16.792 64.5049 15.64C64.5049 14.536 64.8809 13.624 65.6329 12.904C66.3849 12.184 67.5129 11.704 69.0169 11.464L72.9049 10.84V10.408C72.9049 9.83203 72.6809 9.36003 72.2329 8.99203C71.8009 8.62403 71.2249 8.44003 70.5049 8.44003C69.8329 8.44003 69.2329 8.62403 68.7049 8.99203C68.1929 9.34403 67.8169 9.81603 67.5769 10.408L65.0089 9.16003C65.3929 8.13603 66.0969 7.31203 67.1209 6.68803C68.1449 6.06403 69.3129 5.75203 70.6249 5.75203C71.6809 5.75203 72.6169 5.95203 73.4329 6.35203C74.2649 6.73603 74.9049 7.28803 75.3529 8.00803C75.8169 8.71203 76.0489 9.51203 76.0489 10.408V19.096H73.0729V17.704C72.0489 18.824 70.6889 19.384 68.9929 19.384ZM67.7689 15.52C67.7689 15.968 67.9369 16.328 68.2729 16.6C68.6089 16.856 69.0409 16.984 69.5689 16.984C70.5449 16.984 71.3449 16.68 71.9689 16.072C72.5929 15.448 72.9049 14.68 72.9049 13.768V13.24L69.6169 13.792C68.9929 13.92 68.5289 14.128 68.2249 14.416C67.9209 14.688 67.7689 15.056 67.7689 15.52Z" fill="#151411"/>
</svg>
